<svg width="46" height="46" viewBox="0 0 46 46" fill="none" xmlns="http://www.w3.org/2000/svg">
<g filter="url(#filter0_b_612_1545)">
<rect width="46" height="46" rx="13.1429" fill="white" fill-opacity="0.08"/>
<path d="M11.3999 15.0249C11.3999 14.0635 11.7818 13.1415 12.4616 12.4616C13.1415 11.7818 14.0635 11.3999 15.0249 11.3999H28.0749C29.0363 11.3999 29.9583 11.7818 30.6382 12.4616C31.318 13.1415 31.6999 14.0635 31.6999 15.0249V20.9699C31.2363 20.7331 30.7507 20.5422 30.2499 20.4001V15.0249C30.2499 14.4481 30.0208 13.8948 29.6129 13.4869C29.205 13.0791 28.6517 12.8499 28.0749 12.8499H15.0249C14.4481 12.8499 13.8948 13.0791 13.4869 13.4869C13.0791 13.8948 12.8499 14.4481 12.8499 15.0249V28.0749C12.8499 28.6517 13.0791 29.205 13.4869 29.6129C13.8948 30.0208 14.4481 30.2499 15.0249 30.2499H20.4001C20.5441 30.7564 20.734 31.2398 20.9699 31.6999H15.0249C14.0635 31.6999 13.1415 31.318 12.4616 30.6382C11.7818 29.9583 11.3999 29.0363 11.3999 28.0749V15.0249ZM34.5999 28.0749C34.5999 29.8054 33.9124 31.4651 32.6888 32.6888C31.4651 33.9124 29.8054 34.5999 28.0749 34.5999C26.3444 34.5999 24.6847 33.9124 23.461 32.6888C22.2374 31.4651 21.5499 29.8054 21.5499 28.0749C21.5499 26.3444 22.2374 24.6847 23.461 23.461C24.6847 22.2374 26.3444 21.5499 28.0749 21.5499C29.8054 21.5499 31.4651 22.2374 32.6888 23.461C33.9124 24.6847 34.5999 26.3444 34.5999 28.0749ZM28.7999 25.1749C28.7999 24.9826 28.7235 24.7982 28.5876 24.6622C28.4516 24.5263 28.2672 24.4499 28.0749 24.4499C27.8826 24.4499 27.6982 24.5263 27.5623 24.6622C27.4263 24.7982 27.3499 24.9826 27.3499 25.1749V27.3499H25.1749C24.9826 27.3499 24.7982 27.4263 24.6622 27.5623C24.5263 27.6982 24.4499 27.8826 24.4499 28.0749C24.4499 28.2672 24.5263 28.4516 24.6622 28.5876C24.7982 28.7235 24.9826 28.7999 25.1749 28.7999H27.3499V30.9749C27.3499 31.1672 27.4263 31.3516 27.5623 31.4876C27.6982 31.6235 27.8826 31.6999 28.0749 31.6999C28.2672 31.6999 28.4516 31.6235 28.5876 31.4876C28.7235 31.3516 28.7999 31.1672 28.7999 30.9749V28.7999H30.9749C31.1672 28.7999 31.3516 28.7235 31.4876 28.5876C31.6235 28.4516 31.6999 28.2672 31.6999 28.0749C31.6999 27.8826 31.6235 27.6982 31.4876 27.5623C31.3516 27.4263 31.1672 27.3499 30.9749 27.3499H28.7999V25.1749Z" fill="#FF3951"/>
</g>
<defs>
<filter id="filter0_b_612_1545" x="-12.3214" y="-12.3214" width="70.6429" height="70.6429" filterUnits="userSpaceOnUse" color-interpolation-filters="sRGB">
<feFlood flood-opacity="0" result="BackgroundImageFix"/>
<feGaussianBlur in="BackgroundImageFix" stdDeviation="6.16071"/>
<feComposite in2="SourceAlpha" operator="in" result="effect1_backgroundBlur_612_1545"/>
<feBlend mode="normal" in="SourceGraphic" in2="effect1_backgroundBlur_612_1545" result="shape"/>
</filter>
</defs>
</svg>
