<svg width="31" height="33" viewBox="0 0 31 33" fill="none" xmlns="http://www.w3.org/2000/svg">
<path d="M27.4583 29.0833H3.54167V11.6666H27.4583M22.3333 0.583252V3.74992H8.66667V0.583252H5.25V3.74992H3.54167C1.64542 3.74992 0.125 5.15908 0.125 6.91658V29.0833C0.125 29.9231 0.484969 30.7286 1.12572 31.3224C1.76647 31.9163 2.63551 32.2499 3.54167 32.2499H27.4583C28.3645 32.2499 29.2335 31.9163 29.8743 31.3224C30.515 30.7286 30.875 29.9231 30.875 29.0833V6.91658C30.875 6.07673 30.515 5.27128 29.8743 4.67741C29.2335 4.08355 28.3645 3.74992 27.4583 3.74992H25.75V0.583252M24.0417 17.9999H15.5V25.9166H24.0417V17.9999Z" fill="#FF3951"/>
</svg>
