<svg width="212" height="194" viewBox="0 0 212 194" fill="none" xmlns="http://www.w3.org/2000/svg">
<path d="M77.25 126.5C74.0875 126.5 71.3812 125.375 69.131 123.125C66.8808 120.875 65.7538 118.166 65.75 115C65.7462 111.834 66.8732 109.127 69.131 106.881C71.3888 104.635 74.0952 103.508 77.25 103.5C80.4048 103.492 83.1131 104.619 85.3748 106.881C87.6364 109.143 88.7615 111.849 88.75 115C88.7385 118.151 87.6134 120.859 85.3748 123.125C83.1361 125.39 80.4278 126.515 77.25 126.5ZM134.75 126.5C131.588 126.5 128.881 125.375 126.631 123.125C124.381 120.875 123.254 118.166 123.25 115C123.246 111.834 124.373 109.127 126.631 106.881C128.889 104.635 131.595 103.508 134.75 103.5C137.905 103.492 140.613 104.619 142.875 106.881C145.136 109.143 146.261 111.849 146.25 115C146.239 118.151 145.113 120.859 142.875 123.125C140.636 125.39 137.928 126.515 134.75 126.5ZM66.9 23H151.713C153.917 23 155.594 23.9833 156.744 25.9498C157.894 27.9163 157.942 29.9038 156.888 31.9125L136.475 68.7125C135.421 70.6292 134.008 72.1146 132.237 73.1688C130.466 74.2229 128.525 74.75 126.412 74.75H83.575L77.25 86.25H146.25V97.75H77.25C72.9375 97.75 69.6792 95.8583 67.475 92.0748C65.2708 88.2913 65.175 84.5288 67.1875 80.7875L74.95 66.7L54.25 23H42.75V11.5H61.4375L66.9 23Z" fill="#923944"/>
<path d="M70.3318 186.232C70.0544 186.467 69.6918 186.659 69.2438 186.808C68.8171 186.936 68.3158 187 67.7398 187C66.9718 187 66.3318 186.904 65.8198 186.712C65.3291 186.52 65.0091 186.189 64.8598 185.72C64.2624 183.843 63.7718 182.328 63.3878 181.176C63.0038 180.003 62.7051 178.979 62.4918 178.104H62.3318C62.2678 179.363 62.2144 180.515 62.1718 181.56C62.1504 182.584 62.1291 183.587 62.1078 184.568C62.1078 185.549 62.0864 186.541 62.0438 187.544C62.0224 188.547 61.9798 189.656 61.9158 190.872C61.6384 190.979 61.2758 191.064 60.8278 191.128C60.3798 191.213 59.9318 191.256 59.4838 191.256C58.5451 191.256 57.8091 191.107 57.2758 190.808C56.7638 190.509 56.5078 189.965 56.5078 189.176L57.4358 172.856C57.6064 172.579 57.9798 172.28 58.5558 171.96C59.1318 171.64 59.9424 171.48 60.9878 171.48C62.1184 171.48 63.0038 171.661 63.6438 172.024C64.2838 172.365 64.7531 172.931 65.0518 173.72C65.2438 174.232 65.4464 174.819 65.6598 175.48C65.8944 176.141 66.1184 176.824 66.3318 177.528C66.5664 178.232 66.7904 178.936 67.0038 179.64C67.2171 180.323 67.4091 180.941 67.5798 181.496H67.7398C68.2518 179.704 68.7638 177.976 69.2758 176.312C69.7878 174.627 70.2571 173.219 70.6838 172.088C71.0038 171.917 71.4091 171.779 71.8998 171.672C72.4118 171.544 72.9771 171.48 73.5958 171.48C74.6411 171.48 75.4944 171.64 76.1558 171.96C76.8171 172.259 77.2011 172.696 77.3078 173.272C77.3931 173.699 77.4784 174.36 77.5638 175.256C77.6704 176.131 77.7771 177.123 77.8838 178.232C77.9904 179.341 78.0971 180.515 78.2038 181.752C78.3104 182.989 78.4064 184.184 78.4918 185.336C78.5984 186.467 78.6838 187.512 78.7478 188.472C78.8118 189.411 78.8544 190.136 78.8758 190.648C78.5131 190.861 78.1291 191.011 77.7238 191.096C77.3398 191.203 76.8384 191.256 76.2198 191.256C75.4091 191.256 74.7264 191.117 74.1718 190.84C73.6171 190.563 73.3184 190.019 73.2758 189.208C73.1478 186.883 73.0624 184.792 73.0198 182.936C72.9984 181.08 72.9558 179.523 72.8918 178.264H72.7318C72.5184 179.096 72.2091 180.141 71.8038 181.4C71.3984 182.659 70.9078 184.269 70.3318 186.232ZM88.0238 190.872C87.7891 190.936 87.4158 191 86.9038 191.064C86.4131 191.128 85.9224 191.16 85.4318 191.16C84.9411 191.16 84.5038 191.117 84.1198 191.032C83.7571 190.968 83.4478 190.84 83.1918 190.648C82.9358 190.456 82.7438 190.189 82.6158 189.848C82.4878 189.507 82.4238 189.059 82.4238 188.504V171.608C82.6584 171.565 83.0318 171.512 83.5438 171.448C84.0558 171.363 84.5464 171.32 85.0158 171.32C85.5064 171.32 85.9331 171.363 86.2958 171.448C86.6798 171.512 86.9998 171.64 87.2558 171.832C87.5118 172.024 87.7038 172.291 87.8318 172.632C87.9598 172.973 88.0238 173.421 88.0238 173.976V190.872ZM97.7418 184.728V190.872C97.5071 190.936 97.1338 191 96.6218 191.064C96.1311 191.128 95.6404 191.16 95.1498 191.16C94.6591 191.16 94.2218 191.117 93.8378 191.032C93.4751 190.968 93.1658 190.84 92.9098 190.648C92.6751 190.456 92.4938 190.189 92.3658 189.848C92.2378 189.507 92.1738 189.059 92.1738 188.504V173.432C92.1738 172.984 92.2911 172.643 92.5258 172.408C92.7818 172.152 93.1231 171.949 93.5498 171.8C94.2751 171.544 95.1178 171.363 96.0778 171.256C97.0378 171.128 98.0618 171.064 99.1498 171.064C102.094 171.064 104.312 171.683 105.806 172.92C107.299 174.157 108.046 175.832 108.046 177.944C108.046 179.267 107.704 180.397 107.022 181.336C106.339 182.275 105.528 183 104.59 183.512C105.358 184.557 106.115 185.539 106.862 186.456C107.608 187.373 108.195 188.205 108.622 188.952C108.408 189.699 108.014 190.275 107.438 190.68C106.883 191.064 106.254 191.256 105.55 191.256C105.08 191.256 104.675 191.203 104.334 191.096C103.992 190.989 103.694 190.84 103.438 190.648C103.182 190.456 102.947 190.221 102.734 189.944C102.52 189.667 102.318 189.368 102.126 189.048L99.4378 184.728H97.7418ZM99.7578 180.472C100.568 180.472 101.208 180.269 101.678 179.864C102.147 179.437 102.382 178.819 102.382 178.008C102.382 177.197 102.115 176.589 101.582 176.184C101.07 175.757 100.248 175.544 99.1178 175.544C98.7978 175.544 98.5418 175.555 98.3498 175.576C98.1578 175.597 97.9444 175.629 97.7098 175.672V180.472H99.7578ZM117.274 190.872C117.039 190.936 116.666 191 116.154 191.064C115.663 191.128 115.172 191.16 114.682 191.16C114.191 191.16 113.754 191.117 113.37 191.032C113.007 190.968 112.698 190.84 112.442 190.648C112.186 190.456 111.994 190.189 111.866 189.848C111.738 189.507 111.674 189.059 111.674 188.504V171.608C111.908 171.565 112.282 171.512 112.794 171.448C113.306 171.363 113.796 171.32 114.266 171.32C114.756 171.32 115.183 171.363 115.546 171.448C115.93 171.512 116.25 171.64 116.506 171.832C116.762 172.024 116.954 172.291 117.082 172.632C117.21 172.973 117.274 173.421 117.274 173.976V190.872ZM126.928 183.288C125.989 182.968 125.136 182.648 124.368 182.328C123.6 181.987 122.938 181.581 122.384 181.112C121.829 180.643 121.392 180.088 121.072 179.448C120.773 178.787 120.624 177.987 120.624 177.048C120.624 175.235 121.317 173.784 122.704 172.696C124.112 171.608 126.074 171.064 128.592 171.064C129.509 171.064 130.362 171.128 131.152 171.256C131.941 171.384 132.613 171.587 133.168 171.864C133.744 172.12 134.192 172.461 134.512 172.888C134.832 173.293 134.992 173.773 134.992 174.328C134.992 174.883 134.864 175.363 134.608 175.768C134.352 176.152 134.042 176.483 133.68 176.76C133.21 176.461 132.581 176.205 131.792 175.992C131.002 175.757 130.138 175.64 129.2 175.64C128.24 175.64 127.536 175.779 127.088 176.056C126.64 176.312 126.416 176.643 126.416 177.048C126.416 177.368 126.554 177.635 126.832 177.848C127.109 178.04 127.525 178.221 128.08 178.392L129.776 178.936C131.781 179.576 133.317 180.397 134.384 181.4C135.472 182.381 136.016 183.725 136.016 185.432C136.016 187.245 135.301 188.717 133.872 189.848C132.442 190.957 130.341 191.512 127.568 191.512C126.586 191.512 125.669 191.427 124.816 191.256C123.984 191.107 123.248 190.883 122.608 190.584C121.989 190.264 121.498 189.88 121.136 189.432C120.794 188.963 120.624 188.429 120.624 187.832C120.624 187.213 120.805 186.691 121.168 186.264C121.53 185.816 121.925 185.475 122.352 185.24C122.949 185.709 123.674 186.115 124.528 186.456C125.402 186.797 126.352 186.968 127.376 186.968C128.421 186.968 129.157 186.808 129.584 186.488C130.01 186.168 130.224 185.795 130.224 185.368C130.224 184.941 130.053 184.621 129.712 184.408C129.37 184.173 128.89 183.949 128.272 183.736L126.928 183.288ZM143.302 172.184C143.664 171.971 144.208 171.768 144.934 171.576C145.68 171.384 146.427 171.288 147.174 171.288C148.24 171.288 149.179 171.448 149.99 171.768C150.822 172.067 151.355 172.547 151.59 173.208C151.974 174.317 152.39 175.608 152.838 177.08C153.286 178.552 153.734 180.077 154.182 181.656C154.63 183.213 155.067 184.76 155.494 186.296C155.92 187.811 156.294 189.155 156.614 190.328C156.358 190.627 155.974 190.861 155.462 191.032C154.95 191.224 154.342 191.32 153.638 191.32C153.126 191.32 152.688 191.277 152.326 191.192C151.984 191.107 151.696 190.979 151.462 190.808C151.248 190.637 151.067 190.413 150.918 190.136C150.79 189.859 150.672 189.539 150.566 189.176L149.99 186.968H144.198C144.027 187.608 143.856 188.269 143.686 188.952C143.515 189.635 143.344 190.296 143.174 190.936C142.875 191.043 142.555 191.128 142.214 191.192C141.894 191.277 141.499 191.32 141.03 191.32C139.942 191.32 139.131 191.139 138.598 190.776C138.086 190.392 137.83 189.869 137.83 189.208C137.83 188.909 137.872 188.611 137.958 188.312C138.043 188.013 138.139 187.661 138.246 187.256C138.395 186.68 138.598 185.965 138.854 185.112C139.131 184.259 139.43 183.341 139.75 182.36C140.07 181.357 140.411 180.333 140.774 179.288C141.136 178.243 141.478 177.261 141.798 176.344C142.118 175.405 142.406 174.573 142.662 173.848C142.939 173.123 143.152 172.568 143.302 172.184ZM147.142 176.312C146.843 177.208 146.502 178.211 146.118 179.32C145.755 180.408 145.424 181.517 145.126 182.648H149.094C148.795 181.496 148.486 180.376 148.166 179.288C147.867 178.179 147.59 177.187 147.334 176.312H147.142Z" fill="#D9D9D9"/>
<path d="M70.3318 186.232C70.0544 186.467 69.6918 186.659 69.2438 186.808C68.8171 186.936 68.3158 187 67.7398 187C66.9718 187 66.3318 186.904 65.8198 186.712C65.3291 186.52 65.0091 186.189 64.8598 185.72C64.2624 183.843 63.7718 182.328 63.3878 181.176C63.0038 180.003 62.7051 178.979 62.4918 178.104H62.3318C62.2678 179.363 62.2144 180.515 62.1718 181.56C62.1504 182.584 62.1291 183.587 62.1078 184.568C62.1078 185.549 62.0864 186.541 62.0438 187.544C62.0224 188.547 61.9798 189.656 61.9158 190.872C61.6384 190.979 61.2758 191.064 60.8278 191.128C60.3798 191.213 59.9318 191.256 59.4838 191.256C58.5451 191.256 57.8091 191.107 57.2758 190.808C56.7638 190.509 56.5078 189.965 56.5078 189.176L57.4358 172.856C57.6064 172.579 57.9798 172.28 58.5558 171.96C59.1318 171.64 59.9424 171.48 60.9878 171.48C62.1184 171.48 63.0038 171.661 63.6438 172.024C64.2838 172.365 64.7531 172.931 65.0518 173.72C65.2438 174.232 65.4464 174.819 65.6598 175.48C65.8944 176.141 66.1184 176.824 66.3318 177.528C66.5664 178.232 66.7904 178.936 67.0038 179.64C67.2171 180.323 67.4091 180.941 67.5798 181.496H67.7398C68.2518 179.704 68.7638 177.976 69.2758 176.312C69.7878 174.627 70.2571 173.219 70.6838 172.088C71.0038 171.917 71.4091 171.779 71.8998 171.672C72.4118 171.544 72.9771 171.48 73.5958 171.48C74.6411 171.48 75.4944 171.64 76.1558 171.96C76.8171 172.259 77.2011 172.696 77.3078 173.272C77.3931 173.699 77.4784 174.36 77.5638 175.256C77.6704 176.131 77.7771 177.123 77.8838 178.232C77.9904 179.341 78.0971 180.515 78.2038 181.752C78.3104 182.989 78.4064 184.184 78.4918 185.336C78.5984 186.467 78.6838 187.512 78.7478 188.472C78.8118 189.411 78.8544 190.136 78.8758 190.648C78.5131 190.861 78.1291 191.011 77.7238 191.096C77.3398 191.203 76.8384 191.256 76.2198 191.256C75.4091 191.256 74.7264 191.117 74.1718 190.84C73.6171 190.563 73.3184 190.019 73.2758 189.208C73.1478 186.883 73.0624 184.792 73.0198 182.936C72.9984 181.08 72.9558 179.523 72.8918 178.264H72.7318C72.5184 179.096 72.2091 180.141 71.8038 181.4C71.3984 182.659 70.9078 184.269 70.3318 186.232ZM88.0238 190.872C87.7891 190.936 87.4158 191 86.9038 191.064C86.4131 191.128 85.9224 191.16 85.4318 191.16C84.9411 191.16 84.5038 191.117 84.1198 191.032C83.7571 190.968 83.4478 190.84 83.1918 190.648C82.9358 190.456 82.7438 190.189 82.6158 189.848C82.4878 189.507 82.4238 189.059 82.4238 188.504V171.608C82.6584 171.565 83.0318 171.512 83.5438 171.448C84.0558 171.363 84.5464 171.32 85.0158 171.32C85.5064 171.32 85.9331 171.363 86.2958 171.448C86.6798 171.512 86.9998 171.64 87.2558 171.832C87.5118 172.024 87.7038 172.291 87.8318 172.632C87.9598 172.973 88.0238 173.421 88.0238 173.976V190.872ZM97.7418 184.728V190.872C97.5071 190.936 97.1338 191 96.6218 191.064C96.1311 191.128 95.6404 191.16 95.1498 191.16C94.6591 191.16 94.2218 191.117 93.8378 191.032C93.4751 190.968 93.1658 190.84 92.9098 190.648C92.6751 190.456 92.4938 190.189 92.3658 189.848C92.2378 189.507 92.1738 189.059 92.1738 188.504V173.432C92.1738 172.984 92.2911 172.643 92.5258 172.408C92.7818 172.152 93.1231 171.949 93.5498 171.8C94.2751 171.544 95.1178 171.363 96.0778 171.256C97.0378 171.128 98.0618 171.064 99.1498 171.064C102.094 171.064 104.312 171.683 105.806 172.92C107.299 174.157 108.046 175.832 108.046 177.944C108.046 179.267 107.704 180.397 107.022 181.336C106.339 182.275 105.528 183 104.59 183.512C105.358 184.557 106.115 185.539 106.862 186.456C107.608 187.373 108.195 188.205 108.622 188.952C108.408 189.699 108.014 190.275 107.438 190.68C106.883 191.064 106.254 191.256 105.55 191.256C105.08 191.256 104.675 191.203 104.334 191.096C103.992 190.989 103.694 190.84 103.438 190.648C103.182 190.456 102.947 190.221 102.734 189.944C102.52 189.667 102.318 189.368 102.126 189.048L99.4378 184.728H97.7418ZM99.7578 180.472C100.568 180.472 101.208 180.269 101.678 179.864C102.147 179.437 102.382 178.819 102.382 178.008C102.382 177.197 102.115 176.589 101.582 176.184C101.07 175.757 100.248 175.544 99.1178 175.544C98.7978 175.544 98.5418 175.555 98.3498 175.576C98.1578 175.597 97.9444 175.629 97.7098 175.672V180.472H99.7578ZM117.274 190.872C117.039 190.936 116.666 191 116.154 191.064C115.663 191.128 115.172 191.16 114.682 191.16C114.191 191.16 113.754 191.117 113.37 191.032C113.007 190.968 112.698 190.84 112.442 190.648C112.186 190.456 111.994 190.189 111.866 189.848C111.738 189.507 111.674 189.059 111.674 188.504V171.608C111.908 171.565 112.282 171.512 112.794 171.448C113.306 171.363 113.796 171.32 114.266 171.32C114.756 171.32 115.183 171.363 115.546 171.448C115.93 171.512 116.25 171.64 116.506 171.832C116.762 172.024 116.954 172.291 117.082 172.632C117.21 172.973 117.274 173.421 117.274 173.976V190.872ZM126.928 183.288C125.989 182.968 125.136 182.648 124.368 182.328C123.6 181.987 122.938 181.581 122.384 181.112C121.829 180.643 121.392 180.088 121.072 179.448C120.773 178.787 120.624 177.987 120.624 177.048C120.624 175.235 121.317 173.784 122.704 172.696C124.112 171.608 126.074 171.064 128.592 171.064C129.509 171.064 130.362 171.128 131.152 171.256C131.941 171.384 132.613 171.587 133.168 171.864C133.744 172.12 134.192 172.461 134.512 172.888C134.832 173.293 134.992 173.773 134.992 174.328C134.992 174.883 134.864 175.363 134.608 175.768C134.352 176.152 134.042 176.483 133.68 176.76C133.21 176.461 132.581 176.205 131.792 175.992C131.002 175.757 130.138 175.64 129.2 175.64C128.24 175.64 127.536 175.779 127.088 176.056C126.64 176.312 126.416 176.643 126.416 177.048C126.416 177.368 126.554 177.635 126.832 177.848C127.109 178.04 127.525 178.221 128.08 178.392L129.776 178.936C131.781 179.576 133.317 180.397 134.384 181.4C135.472 182.381 136.016 183.725 136.016 185.432C136.016 187.245 135.301 188.717 133.872 189.848C132.442 190.957 130.341 191.512 127.568 191.512C126.586 191.512 125.669 191.427 124.816 191.256C123.984 191.107 123.248 190.883 122.608 190.584C121.989 190.264 121.498 189.88 121.136 189.432C120.794 188.963 120.624 188.429 120.624 187.832C120.624 187.213 120.805 186.691 121.168 186.264C121.53 185.816 121.925 185.475 122.352 185.24C122.949 185.709 123.674 186.115 124.528 186.456C125.402 186.797 126.352 186.968 127.376 186.968C128.421 186.968 129.157 186.808 129.584 186.488C130.01 186.168 130.224 185.795 130.224 185.368C130.224 184.941 130.053 184.621 129.712 184.408C129.37 184.173 128.89 183.949 128.272 183.736L126.928 183.288ZM143.302 172.184C143.664 171.971 144.208 171.768 144.934 171.576C145.68 171.384 146.427 171.288 147.174 171.288C148.24 171.288 149.179 171.448 149.99 171.768C150.822 172.067 151.355 172.547 151.59 173.208C151.974 174.317 152.39 175.608 152.838 177.08C153.286 178.552 153.734 180.077 154.182 181.656C154.63 183.213 155.067 184.76 155.494 186.296C155.92 187.811 156.294 189.155 156.614 190.328C156.358 190.627 155.974 190.861 155.462 191.032C154.95 191.224 154.342 191.32 153.638 191.32C153.126 191.32 152.688 191.277 152.326 191.192C151.984 191.107 151.696 190.979 151.462 190.808C151.248 190.637 151.067 190.413 150.918 190.136C150.79 189.859 150.672 189.539 150.566 189.176L149.99 186.968H144.198C144.027 187.608 143.856 188.269 143.686 188.952C143.515 189.635 143.344 190.296 143.174 190.936C142.875 191.043 142.555 191.128 142.214 191.192C141.894 191.277 141.499 191.32 141.03 191.32C139.942 191.32 139.131 191.139 138.598 190.776C138.086 190.392 137.83 189.869 137.83 189.208C137.83 188.909 137.872 188.611 137.958 188.312C138.043 188.013 138.139 187.661 138.246 187.256C138.395 186.68 138.598 185.965 138.854 185.112C139.131 184.259 139.43 183.341 139.75 182.36C140.07 181.357 140.411 180.333 140.774 179.288C141.136 178.243 141.478 177.261 141.798 176.344C142.118 175.405 142.406 174.573 142.662 173.848C142.939 173.123 143.152 172.568 143.302 172.184ZM147.142 176.312C146.843 177.208 146.502 178.211 146.118 179.32C145.755 180.408 145.424 181.517 145.126 182.648H149.094C148.795 181.496 148.486 180.376 148.166 179.288C147.867 178.179 147.59 177.187 147.334 176.312H147.142Z" fill="black" fill-opacity="0.2"/>
<path d="M70.3318 186.232C70.0544 186.467 69.6918 186.659 69.2438 186.808C68.8171 186.936 68.3158 187 67.7398 187C66.9718 187 66.3318 186.904 65.8198 186.712C65.3291 186.52 65.0091 186.189 64.8598 185.72C64.2624 183.843 63.7718 182.328 63.3878 181.176C63.0038 180.003 62.7051 178.979 62.4918 178.104H62.3318C62.2678 179.363 62.2144 180.515 62.1718 181.56C62.1504 182.584 62.1291 183.587 62.1078 184.568C62.1078 185.549 62.0864 186.541 62.0438 187.544C62.0224 188.547 61.9798 189.656 61.9158 190.872C61.6384 190.979 61.2758 191.064 60.8278 191.128C60.3798 191.213 59.9318 191.256 59.4838 191.256C58.5451 191.256 57.8091 191.107 57.2758 190.808C56.7638 190.509 56.5078 189.965 56.5078 189.176L57.4358 172.856C57.6064 172.579 57.9798 172.28 58.5558 171.96C59.1318 171.64 59.9424 171.48 60.9878 171.48C62.1184 171.48 63.0038 171.661 63.6438 172.024C64.2838 172.365 64.7531 172.931 65.0518 173.72C65.2438 174.232 65.4464 174.819 65.6598 175.48C65.8944 176.141 66.1184 176.824 66.3318 177.528C66.5664 178.232 66.7904 178.936 67.0038 179.64C67.2171 180.323 67.4091 180.941 67.5798 181.496H67.7398C68.2518 179.704 68.7638 177.976 69.2758 176.312C69.7878 174.627 70.2571 173.219 70.6838 172.088C71.0038 171.917 71.4091 171.779 71.8998 171.672C72.4118 171.544 72.9771 171.48 73.5958 171.48C74.6411 171.48 75.4944 171.64 76.1558 171.96C76.8171 172.259 77.2011 172.696 77.3078 173.272C77.3931 173.699 77.4784 174.36 77.5638 175.256C77.6704 176.131 77.7771 177.123 77.8838 178.232C77.9904 179.341 78.0971 180.515 78.2038 181.752C78.3104 182.989 78.4064 184.184 78.4918 185.336C78.5984 186.467 78.6838 187.512 78.7478 188.472C78.8118 189.411 78.8544 190.136 78.8758 190.648C78.5131 190.861 78.1291 191.011 77.7238 191.096C77.3398 191.203 76.8384 191.256 76.2198 191.256C75.4091 191.256 74.7264 191.117 74.1718 190.84C73.6171 190.563 73.3184 190.019 73.2758 189.208C73.1478 186.883 73.0624 184.792 73.0198 182.936C72.9984 181.08 72.9558 179.523 72.8918 178.264H72.7318C72.5184 179.096 72.2091 180.141 71.8038 181.4C71.3984 182.659 70.9078 184.269 70.3318 186.232ZM88.0238 190.872C87.7891 190.936 87.4158 191 86.9038 191.064C86.4131 191.128 85.9224 191.16 85.4318 191.16C84.9411 191.16 84.5038 191.117 84.1198 191.032C83.7571 190.968 83.4478 190.84 83.1918 190.648C82.9358 190.456 82.7438 190.189 82.6158 189.848C82.4878 189.507 82.4238 189.059 82.4238 188.504V171.608C82.6584 171.565 83.0318 171.512 83.5438 171.448C84.0558 171.363 84.5464 171.32 85.0158 171.32C85.5064 171.32 85.9331 171.363 86.2958 171.448C86.6798 171.512 86.9998 171.64 87.2558 171.832C87.5118 172.024 87.7038 172.291 87.8318 172.632C87.9598 172.973 88.0238 173.421 88.0238 173.976V190.872ZM97.7418 184.728V190.872C97.5071 190.936 97.1338 191 96.6218 191.064C96.1311 191.128 95.6404 191.16 95.1498 191.16C94.6591 191.16 94.2218 191.117 93.8378 191.032C93.4751 190.968 93.1658 190.84 92.9098 190.648C92.6751 190.456 92.4938 190.189 92.3658 189.848C92.2378 189.507 92.1738 189.059 92.1738 188.504V173.432C92.1738 172.984 92.2911 172.643 92.5258 172.408C92.7818 172.152 93.1231 171.949 93.5498 171.8C94.2751 171.544 95.1178 171.363 96.0778 171.256C97.0378 171.128 98.0618 171.064 99.1498 171.064C102.094 171.064 104.312 171.683 105.806 172.92C107.299 174.157 108.046 175.832 108.046 177.944C108.046 179.267 107.704 180.397 107.022 181.336C106.339 182.275 105.528 183 104.59 183.512C105.358 184.557 106.115 185.539 106.862 186.456C107.608 187.373 108.195 188.205 108.622 188.952C108.408 189.699 108.014 190.275 107.438 190.68C106.883 191.064 106.254 191.256 105.55 191.256C105.08 191.256 104.675 191.203 104.334 191.096C103.992 190.989 103.694 190.84 103.438 190.648C103.182 190.456 102.947 190.221 102.734 189.944C102.52 189.667 102.318 189.368 102.126 189.048L99.4378 184.728H97.7418ZM99.7578 180.472C100.568 180.472 101.208 180.269 101.678 179.864C102.147 179.437 102.382 178.819 102.382 178.008C102.382 177.197 102.115 176.589 101.582 176.184C101.07 175.757 100.248 175.544 99.1178 175.544C98.7978 175.544 98.5418 175.555 98.3498 175.576C98.1578 175.597 97.9444 175.629 97.7098 175.672V180.472H99.7578ZM117.274 190.872C117.039 190.936 116.666 191 116.154 191.064C115.663 191.128 115.172 191.16 114.682 191.16C114.191 191.16 113.754 191.117 113.37 191.032C113.007 190.968 112.698 190.84 112.442 190.648C112.186 190.456 111.994 190.189 111.866 189.848C111.738 189.507 111.674 189.059 111.674 188.504V171.608C111.908 171.565 112.282 171.512 112.794 171.448C113.306 171.363 113.796 171.32 114.266 171.32C114.756 171.32 115.183 171.363 115.546 171.448C115.93 171.512 116.25 171.64 116.506 171.832C116.762 172.024 116.954 172.291 117.082 172.632C117.21 172.973 117.274 173.421 117.274 173.976V190.872ZM126.928 183.288C125.989 182.968 125.136 182.648 124.368 182.328C123.6 181.987 122.938 181.581 122.384 181.112C121.829 180.643 121.392 180.088 121.072 179.448C120.773 178.787 120.624 177.987 120.624 177.048C120.624 175.235 121.317 173.784 122.704 172.696C124.112 171.608 126.074 171.064 128.592 171.064C129.509 171.064 130.362 171.128 131.152 171.256C131.941 171.384 132.613 171.587 133.168 171.864C133.744 172.12 134.192 172.461 134.512 172.888C134.832 173.293 134.992 173.773 134.992 174.328C134.992 174.883 134.864 175.363 134.608 175.768C134.352 176.152 134.042 176.483 133.68 176.76C133.21 176.461 132.581 176.205 131.792 175.992C131.002 175.757 130.138 175.64 129.2 175.64C128.24 175.64 127.536 175.779 127.088 176.056C126.64 176.312 126.416 176.643 126.416 177.048C126.416 177.368 126.554 177.635 126.832 177.848C127.109 178.04 127.525 178.221 128.08 178.392L129.776 178.936C131.781 179.576 133.317 180.397 134.384 181.4C135.472 182.381 136.016 183.725 136.016 185.432C136.016 187.245 135.301 188.717 133.872 189.848C132.442 190.957 130.341 191.512 127.568 191.512C126.586 191.512 125.669 191.427 124.816 191.256C123.984 191.107 123.248 190.883 122.608 190.584C121.989 190.264 121.498 189.88 121.136 189.432C120.794 188.963 120.624 188.429 120.624 187.832C120.624 187.213 120.805 186.691 121.168 186.264C121.53 185.816 121.925 185.475 122.352 185.24C122.949 185.709 123.674 186.115 124.528 186.456C125.402 186.797 126.352 186.968 127.376 186.968C128.421 186.968 129.157 186.808 129.584 186.488C130.01 186.168 130.224 185.795 130.224 185.368C130.224 184.941 130.053 184.621 129.712 184.408C129.37 184.173 128.89 183.949 128.272 183.736L126.928 183.288ZM143.302 172.184C143.664 171.971 144.208 171.768 144.934 171.576C145.68 171.384 146.427 171.288 147.174 171.288C148.24 171.288 149.179 171.448 149.99 171.768C150.822 172.067 151.355 172.547 151.59 173.208C151.974 174.317 152.39 175.608 152.838 177.08C153.286 178.552 153.734 180.077 154.182 181.656C154.63 183.213 155.067 184.76 155.494 186.296C155.92 187.811 156.294 189.155 156.614 190.328C156.358 190.627 155.974 190.861 155.462 191.032C154.95 191.224 154.342 191.32 153.638 191.32C153.126 191.32 152.688 191.277 152.326 191.192C151.984 191.107 151.696 190.979 151.462 190.808C151.248 190.637 151.067 190.413 150.918 190.136C150.79 189.859 150.672 189.539 150.566 189.176L149.99 186.968H144.198C144.027 187.608 143.856 188.269 143.686 188.952C143.515 189.635 143.344 190.296 143.174 190.936C142.875 191.043 142.555 191.128 142.214 191.192C141.894 191.277 141.499 191.32 141.03 191.32C139.942 191.32 139.131 191.139 138.598 190.776C138.086 190.392 137.83 189.869 137.83 189.208C137.83 188.909 137.872 188.611 137.958 188.312C138.043 188.013 138.139 187.661 138.246 187.256C138.395 186.68 138.598 185.965 138.854 185.112C139.131 184.259 139.43 183.341 139.75 182.36C140.07 181.357 140.411 180.333 140.774 179.288C141.136 178.243 141.478 177.261 141.798 176.344C142.118 175.405 142.406 174.573 142.662 173.848C142.939 173.123 143.152 172.568 143.302 172.184ZM147.142 176.312C146.843 177.208 146.502 178.211 146.118 179.32C145.755 180.408 145.424 181.517 145.126 182.648H149.094C148.795 181.496 148.486 180.376 148.166 179.288C147.867 178.179 147.59 177.187 147.334 176.312H147.142Z" fill="#923944"/>
</svg>
