<svg width="46" height="46" viewBox="0 0 46 46" fill="none" xmlns="http://www.w3.org/2000/svg">
<g filter="url(#filter0_b_612_1571)">
<rect width="46" height="46" rx="13.1429" fill="white" fill-opacity="0.08"/>
<path d="M15.2666 15.2666H18.1666L20.0999 13.3333H25.8999L27.8333 15.2666H30.7333C31.246 15.2666 31.7378 15.4703 32.1003 15.8328C32.4629 16.1954 32.6666 16.6872 32.6666 17.1999V28.7999C32.6666 29.3127 32.4629 29.8044 32.1003 30.167C31.7378 30.5296 31.246 30.7333 30.7333 30.7333H15.2666C14.7538 30.7333 14.2621 30.5296 13.8995 30.167C13.5369 29.8044 13.3333 29.3127 13.3333 28.7999V17.1999C13.3333 16.6872 13.5369 16.1954 13.8995 15.8328C14.2621 15.4703 14.7538 15.2666 15.2666 15.2666ZM22.9999 18.1666C21.718 18.1666 20.4887 18.6758 19.5822 19.5822C18.6758 20.4887 18.1666 21.718 18.1666 22.9999C18.1666 24.2818 18.6758 25.5112 19.5822 26.4176C20.4887 27.324 21.718 27.8333 22.9999 27.8333C24.2818 27.8333 25.5112 27.324 26.4176 26.4176C27.324 25.5112 27.8333 24.2818 27.8333 22.9999C27.8333 21.718 27.324 20.4887 26.4176 19.5822C25.5112 18.6758 24.2818 18.1666 22.9999 18.1666ZM22.9999 20.0999C23.769 20.0999 24.5067 20.4055 25.0505 20.9493C25.5944 21.4932 25.8999 22.2308 25.8999 22.9999C25.8999 23.769 25.5944 24.5067 25.0505 25.0505C24.5067 25.5944 23.769 25.8999 22.9999 25.8999C22.2308 25.8999 21.4932 25.5944 20.9493 25.0505C20.4055 24.5067 20.0999 23.769 20.0999 22.9999C20.0999 22.2308 20.4055 21.4932 20.9493 20.9493C21.4932 20.4055 22.2308 20.0999 22.9999 20.0999Z" fill="#FF3951"/>
</g>
<defs>
<filter id="filter0_b_612_1571" x="-12.3214" y="-12.3214" width="70.6429" height="70.6429" filterUnits="userSpaceOnUse" color-interpolation-filters="sRGB">
<feFlood flood-opacity="0" result="BackgroundImageFix"/>
<feGaussianBlur in="BackgroundImageFix" stdDeviation="6.16071"/>
<feComposite in2="SourceAlpha" operator="in" result="effect1_backgroundBlur_612_1571"/>
<feBlend mode="normal" in="SourceGraphic" in2="effect1_backgroundBlur_612_1571" result="shape"/>
</filter>
</defs>
</svg>
