<svg width="242" height="137" viewBox="0 0 242 137" fill="none" xmlns="http://www.w3.org/2000/svg">
<path d="M60.5 137C43.8167 137 29.5643 132.505 17.743 123.514C5.92167 114.523 0.00733333 103.535 0 90.5484C0 79.4172 4.30833 69.499 12.925 60.7938C21.5417 52.0885 32.8167 46.5229 46.75 44.0969C51.3333 30.9677 60.5 20.3359 74.25 12.2016C88 4.06719 103.583 0 121 0C142.45 0 160.648 5.81679 175.593 17.4504C190.538 29.084 198.007 43.2463 198 59.9375C210.65 61.0792 221.148 65.3262 229.493 72.6785C237.838 80.0308 242.007 88.6276 242 98.4688C242 109.172 237.189 118.271 227.568 125.766C217.947 133.261 206.257 137.006 192.5 137H60.5Z" fill="#2F323D"/>
</svg>
