<svg width="35" height="32" viewBox="0 0 35 32" fill="none" xmlns="http://www.w3.org/2000/svg">
<path d="M15.7832 4.41V10.5533C15.7832 11.062 15.6748 11.5657 15.4643 12.0354C15.2538 12.5052 14.9452 12.9318 14.5563 13.2907C14.1674 13.6497 13.7059 13.9339 13.1982 14.1271C12.6905 14.3204 12.1466 14.4188 11.5978 14.4167H5.00363C4.45629 14.4197 3.9139 14.3204 3.409 14.1245C2.90409 13.9286 2.44706 13.6402 2.0653 13.2767C1.67771 12.9204 1.37077 12.496 1.16248 12.0284C0.954204 11.5607 0.848776 11.0592 0.852385 10.5533V4.42583C0.852375 3.40395 1.28919 2.42369 2.06721 1.69963C2.84524 0.975565 3.90109 0.566688 5.00363 0.5625H11.6149C12.1617 0.562987 12.7029 0.663996 13.2073 0.859679C13.7116 1.05536 14.1691 1.34183 14.5532 1.7025C14.9418 2.05556 15.2508 2.47679 15.4619 2.94163C15.6731 3.40648 15.7823 3.90563 15.7832 4.41ZM34.1478 4.42583V10.5533C34.1389 11.5727 33.6993 12.5482 32.9232 13.2705C32.147 13.9928 31.0963 14.4043 29.9966 14.4167H23.3682C22.2633 14.4104 21.2039 14.0075 20.4128 13.2925C20.0262 12.9323 19.7201 12.5049 19.512 12.0349C19.3038 11.5649 19.1978 11.0614 19.1999 10.5533V4.42583C19.1985 3.9188 19.3066 3.41664 19.5179 2.94893C19.7291 2.48122 20.0392 2.05742 20.4299 1.7025C20.814 1.34183 21.2715 1.05536 21.7758 0.859679C22.2802 0.663996 22.8214 0.562987 23.3682 0.5625H29.9795C31.0822 0.570776 32.1373 0.980462 32.9171 1.70319C33.6968 2.42592 34.1389 3.40377 34.1478 4.42583ZM34.1478 21.4467V27.5742C34.1389 28.5935 33.6993 29.569 32.9232 30.2913C32.147 31.0136 31.0963 31.4251 29.9966 31.4375H23.3682C22.2562 31.448 21.1837 31.056 20.3786 30.345C19.9905 29.9858 19.6834 29.5587 19.4752 29.0884C19.2669 28.6181 19.1617 28.1142 19.1657 27.6058V21.4783C19.1643 20.9713 19.2725 20.4691 19.4837 20.0014C19.6949 19.5337 20.005 19.1099 20.3957 18.755C20.7798 18.3943 21.2373 18.1079 21.7417 17.9122C22.246 17.7165 22.7873 17.6155 23.3341 17.615H29.9453C31.048 17.6233 32.1031 18.033 32.8829 18.7557C33.6627 19.4784 34.1047 20.4563 34.1136 21.4783L34.1478 21.4467ZM15.7832 21.4625V27.59C15.7698 28.612 15.3234 29.5882 14.5404 30.308C13.7575 31.0277 12.7006 31.4334 11.5978 31.4375H5.00363C4.45785 31.4396 3.91702 31.3415 3.41235 31.1489C2.90768 30.9563 2.44915 30.673 2.06322 30.3153C1.67729 29.9576 1.3716 29.5326 1.16378 29.0648C0.955957 28.5971 0.850125 28.0958 0.852385 27.59V21.4625C0.856786 20.4404 1.29449 19.4609 2.07108 18.7352C2.84767 18.0095 3.90092 17.5958 5.00363 17.5833H11.6149C12.7222 17.5938 13.7819 18.0026 14.5703 18.7233C15.3495 19.4518 15.7856 20.4367 15.7832 21.4625Z" fill="#FF3951"/>
</svg>
