<svg width="24" height="24" viewBox="0 0 24 24" fill="none" xmlns="http://www.w3.org/2000/svg">
<path d="M12 3.86206C7.581 3.86206 4 7.32054 4 11.5862C4 15.8519 7.581 19.3103 12 19.3103C16.419 19.3103 20 15.8519 20 11.5862C20 7.32054 16.419 3.86206 12 3.86206ZM15.707 13.8001C15.8945 13.9812 15.9998 14.2267 15.9998 14.4827C15.9998 14.7388 15.8945 14.9843 15.707 15.1654C15.5195 15.3464 15.2652 15.4481 15 15.4481C14.7348 15.4481 14.4805 15.3464 14.293 15.1654L12 12.9514L9.707 15.1654C9.61435 15.2553 9.50419 15.3267 9.38285 15.3755C9.26152 15.4242 9.13141 15.4493 9 15.4493C8.86859 15.4493 8.73848 15.4242 8.61715 15.3755C8.49581 15.3267 8.38565 15.2553 8.293 15.1654C8.10553 14.9843 8.00021 14.7388 8.00021 14.4827C8.00021 14.2267 8.10553 13.9812 8.293 13.8001L10.586 11.5862L8.293 9.37227C8.10549 9.19122 8.00015 8.94568 8.00015 8.68965C8.00015 8.43361 8.10549 8.18807 8.293 8.00703C8.48051 7.82598 8.73482 7.72427 9 7.72427C9.26518 7.72427 9.51949 7.82598 9.707 8.00703L12 10.221L14.293 8.00703C14.4805 7.82598 14.7348 7.72427 15 7.72427C15.2652 7.72427 15.5195 7.82598 15.707 8.00703C15.8945 8.18807 15.9998 8.43361 15.9998 8.68965C15.9998 8.94568 15.8945 9.19122 15.707 9.37227L13.414 11.5862L15.707 13.8001Z" fill="#FF3951"/>
</svg>
