<svg width="136" height="163" viewBox="0 0 136 163" fill="none" xmlns="http://www.w3.org/2000/svg">
<path d="M49.6667 80.6666C47.65 80.6666 45.9242 79.9491 44.4894 78.5143C43.0545 77.0794 42.3358 75.3524 42.3334 73.3333C42.3309 71.3141 43.0496 69.5884 44.4894 68.1559C45.9291 66.7235 47.6549 66.0048 49.6667 65.9999C51.6785 65.995 53.4055 66.7137 54.8477 68.1559C56.2899 69.5981 57.0074 71.3239 57 73.3333C56.9927 75.3426 56.2752 77.0696 54.8477 78.5143C53.4201 79.9589 51.6931 80.6764 49.6667 80.6666ZM86.3334 80.6666C84.3167 80.6666 82.5909 79.9491 81.156 78.5143C79.7211 77.0794 79.0025 75.3524 79 73.3333C78.9976 71.3141 79.7162 69.5884 81.156 68.1559C82.5958 66.7235 84.3216 66.0048 86.3334 65.9999C88.3451 65.995 90.0721 66.7137 91.5144 68.1559C92.9566 69.5981 93.674 71.3239 93.6667 73.3333C93.6594 75.3426 92.9419 77.0696 91.5144 78.5143C90.0868 79.9589 88.3598 80.6764 86.3334 80.6666ZM43.0667 14.6666H97.15C98.5556 14.6666 99.625 15.2936 100.358 16.5476C101.092 17.8016 101.122 19.069 100.45 20.3499L87.4334 43.8166C86.7611 45.0388 85.8604 45.986 84.731 46.6583C83.6017 47.3305 82.3636 47.6666 81.0167 47.6666H53.7L49.6667 54.9999H93.6667V62.3333H49.6667C46.9167 62.3333 44.8389 61.1269 43.4334 58.7143C42.0278 56.3016 41.9667 53.9024 43.25 51.5166L48.2 42.5333L35 14.6666H27.6667V7.33325H39.5834L43.0667 14.6666Z" fill="#FF3951"/>
<path d="M32.3318 124.232C32.0544 124.467 31.6918 124.659 31.2438 124.808C30.8171 124.936 30.3158 125 29.7398 125C28.9718 125 28.3318 124.904 27.8198 124.712C27.3291 124.52 27.0091 124.189 26.8598 123.72C26.2624 121.843 25.7718 120.328 25.3878 119.176C25.0038 118.003 24.7051 116.979 24.4918 116.104H24.3318C24.2678 117.363 24.2144 118.515 24.1718 119.56C24.1504 120.584 24.1291 121.587 24.1078 122.568C24.1078 123.549 24.0864 124.541 24.0438 125.544C24.0224 126.547 23.9798 127.656 23.9158 128.872C23.6384 128.979 23.2758 129.064 22.8278 129.128C22.3798 129.213 21.9318 129.256 21.4838 129.256C20.5451 129.256 19.8091 129.107 19.2758 128.808C18.7638 128.509 18.5078 127.965 18.5078 127.176L19.4358 110.856C19.6064 110.579 19.9798 110.28 20.5558 109.96C21.1318 109.64 21.9424 109.48 22.9878 109.48C24.1184 109.48 25.0038 109.661 25.6438 110.024C26.2838 110.365 26.7531 110.931 27.0518 111.72C27.2438 112.232 27.4464 112.819 27.6598 113.48C27.8944 114.141 28.1184 114.824 28.3318 115.528C28.5664 116.232 28.7904 116.936 29.0038 117.64C29.2171 118.323 29.4091 118.941 29.5798 119.496H29.7398C30.2518 117.704 30.7638 115.976 31.2758 114.312C31.7878 112.627 32.2571 111.219 32.6838 110.088C33.0038 109.917 33.4091 109.779 33.8998 109.672C34.4118 109.544 34.9771 109.48 35.5958 109.48C36.6411 109.48 37.4944 109.64 38.1558 109.96C38.8171 110.259 39.2011 110.696 39.3078 111.272C39.3931 111.699 39.4784 112.36 39.5638 113.256C39.6704 114.131 39.7771 115.123 39.8838 116.232C39.9904 117.341 40.0971 118.515 40.2038 119.752C40.3104 120.989 40.4064 122.184 40.4918 123.336C40.5984 124.467 40.6838 125.512 40.7478 126.472C40.8118 127.411 40.8544 128.136 40.8758 128.648C40.5131 128.861 40.1291 129.011 39.7238 129.096C39.3398 129.203 38.8384 129.256 38.2198 129.256C37.4091 129.256 36.7264 129.117 36.1718 128.84C35.6171 128.563 35.3184 128.019 35.2758 127.208C35.1478 124.883 35.0624 122.792 35.0198 120.936C34.9984 119.08 34.9558 117.523 34.8918 116.264H34.7318C34.5184 117.096 34.2091 118.141 33.8038 119.4C33.3984 120.659 32.9078 122.269 32.3318 124.232ZM50.0238 128.872C49.7891 128.936 49.4158 129 48.9038 129.064C48.4131 129.128 47.9224 129.16 47.4318 129.16C46.9411 129.16 46.5038 129.117 46.1198 129.032C45.7571 128.968 45.4478 128.84 45.1918 128.648C44.9358 128.456 44.7438 128.189 44.6158 127.848C44.4878 127.507 44.4238 127.059 44.4238 126.504V109.608C44.6584 109.565 45.0318 109.512 45.5438 109.448C46.0558 109.363 46.5464 109.32 47.0158 109.32C47.5064 109.32 47.9331 109.363 48.2958 109.448C48.6798 109.512 48.9998 109.64 49.2558 109.832C49.5118 110.024 49.7038 110.291 49.8318 110.632C49.9598 110.973 50.0238 111.421 50.0238 111.976V128.872ZM59.7418 122.728V128.872C59.5071 128.936 59.1338 129 58.6218 129.064C58.1311 129.128 57.6404 129.16 57.1498 129.16C56.6591 129.16 56.2218 129.117 55.8378 129.032C55.4751 128.968 55.1658 128.84 54.9098 128.648C54.6751 128.456 54.4938 128.189 54.3658 127.848C54.2378 127.507 54.1738 127.059 54.1738 126.504V111.432C54.1738 110.984 54.2911 110.643 54.5258 110.408C54.7818 110.152 55.1231 109.949 55.5498 109.8C56.2751 109.544 57.1178 109.363 58.0778 109.256C59.0378 109.128 60.0618 109.064 61.1498 109.064C64.0938 109.064 66.3124 109.683 67.8058 110.92C69.2991 112.157 70.0458 113.832 70.0458 115.944C70.0458 117.267 69.7044 118.397 69.0218 119.336C68.3391 120.275 67.5284 121 66.5898 121.512C67.3578 122.557 68.1151 123.539 68.8618 124.456C69.6084 125.373 70.1951 126.205 70.6218 126.952C70.4084 127.699 70.0138 128.275 69.4378 128.68C68.8831 129.064 68.2538 129.256 67.5498 129.256C67.0804 129.256 66.6751 129.203 66.3338 129.096C65.9924 128.989 65.6938 128.84 65.4378 128.648C65.1818 128.456 64.9471 128.221 64.7338 127.944C64.5204 127.667 64.3178 127.368 64.1258 127.048L61.4378 122.728H59.7418ZM61.7578 118.472C62.5684 118.472 63.2084 118.269 63.6778 117.864C64.1471 117.437 64.3818 116.819 64.3818 116.008C64.3818 115.197 64.1151 114.589 63.5818 114.184C63.0698 113.757 62.2484 113.544 61.1178 113.544C60.7978 113.544 60.5418 113.555 60.3498 113.576C60.1578 113.597 59.9444 113.629 59.7098 113.672V118.472H61.7578ZM79.2738 128.872C79.0391 128.936 78.6658 129 78.1538 129.064C77.6631 129.128 77.1724 129.16 76.6818 129.16C76.1911 129.16 75.7538 129.117 75.3698 129.032C75.0071 128.968 74.6978 128.84 74.4418 128.648C74.1858 128.456 73.9938 128.189 73.8658 127.848C73.7378 127.507 73.6738 127.059 73.6738 126.504V109.608C73.9084 109.565 74.2818 109.512 74.7938 109.448C75.3058 109.363 75.7964 109.32 76.2658 109.32C76.7564 109.32 77.1831 109.363 77.5458 109.448C77.9298 109.512 78.2498 109.64 78.5058 109.832C78.7618 110.024 78.9538 110.291 79.0818 110.632C79.2098 110.973 79.2738 111.421 79.2738 111.976V128.872ZM88.9278 121.288C87.9891 120.968 87.1358 120.648 86.3678 120.328C85.5998 119.987 84.9384 119.581 84.3838 119.112C83.8291 118.643 83.3918 118.088 83.0718 117.448C82.7731 116.787 82.6238 115.987 82.6238 115.048C82.6238 113.235 83.3171 111.784 84.7038 110.696C86.1118 109.608 88.0744 109.064 90.5918 109.064C91.5091 109.064 92.3624 109.128 93.1518 109.256C93.9411 109.384 94.6131 109.587 95.1678 109.864C95.7438 110.12 96.1918 110.461 96.5118 110.888C96.8318 111.293 96.9918 111.773 96.9918 112.328C96.9918 112.883 96.8638 113.363 96.6078 113.768C96.3518 114.152 96.0424 114.483 95.6798 114.76C95.2104 114.461 94.5811 114.205 93.7918 113.992C93.0024 113.757 92.1384 113.64 91.1998 113.64C90.2398 113.64 89.5358 113.779 89.0878 114.056C88.6398 114.312 88.4158 114.643 88.4158 115.048C88.4158 115.368 88.5544 115.635 88.8318 115.848C89.1091 116.04 89.5251 116.221 90.0798 116.392L91.7758 116.936C93.7811 117.576 95.3171 118.397 96.3838 119.4C97.4718 120.381 98.0158 121.725 98.0158 123.432C98.0158 125.245 97.3011 126.717 95.8718 127.848C94.4424 128.957 92.3411 129.512 89.5677 129.512C88.5864 129.512 87.6691 129.427 86.8158 129.256C85.9838 129.107 85.2478 128.883 84.6078 128.584C83.9891 128.264 83.4984 127.88 83.1358 127.432C82.7944 126.963 82.6238 126.429 82.6238 125.832C82.6238 125.213 82.8051 124.691 83.1678 124.264C83.5304 123.816 83.9251 123.475 84.3518 123.24C84.9491 123.709 85.6744 124.115 86.5278 124.456C87.4024 124.797 88.3518 124.968 89.3758 124.968C90.4211 124.968 91.1571 124.808 91.5838 124.488C92.0104 124.168 92.2238 123.795 92.2238 123.368C92.2238 122.941 92.0531 122.621 91.7118 122.408C91.3704 122.173 90.8904 121.949 90.2718 121.736L88.9278 121.288ZM105.302 110.184C105.664 109.971 106.208 109.768 106.934 109.576C107.68 109.384 108.427 109.288 109.174 109.288C110.24 109.288 111.179 109.448 111.99 109.768C112.822 110.067 113.355 110.547 113.59 111.208C113.974 112.317 114.39 113.608 114.838 115.08C115.286 116.552 115.734 118.077 116.182 119.656C116.63 121.213 117.067 122.76 117.494 124.296C117.92 125.811 118.294 127.155 118.614 128.328C118.358 128.627 117.974 128.861 117.462 129.032C116.95 129.224 116.342 129.32 115.638 129.32C115.126 129.32 114.688 129.277 114.326 129.192C113.984 129.107 113.696 128.979 113.462 128.808C113.248 128.637 113.067 128.413 112.918 128.136C112.79 127.859 112.672 127.539 112.566 127.176L111.99 124.968H106.198C106.027 125.608 105.856 126.269 105.686 126.952C105.515 127.635 105.344 128.296 105.174 128.936C104.875 129.043 104.555 129.128 104.214 129.192C103.894 129.277 103.499 129.32 103.03 129.32C101.942 129.32 101.131 129.139 100.598 128.776C100.086 128.392 99.8298 127.869 99.8298 127.208C99.8298 126.909 99.8724 126.611 99.9578 126.312C100.043 126.013 100.139 125.661 100.246 125.256C100.395 124.68 100.598 123.965 100.854 123.112C101.131 122.259 101.43 121.341 101.75 120.36C102.07 119.357 102.411 118.333 102.774 117.288C103.136 116.243 103.478 115.261 103.798 114.344C104.118 113.405 104.406 112.573 104.662 111.848C104.939 111.123 105.152 110.568 105.302 110.184ZM109.142 114.312C108.843 115.208 108.502 116.211 108.118 117.32C107.755 118.408 107.424 119.517 107.126 120.648H111.094C110.795 119.496 110.486 118.376 110.166 117.288C109.867 116.179 109.59 115.187 109.334 114.312H109.142Z" fill="#D9D9D9"/>
<path d="M32.3318 124.232C32.0544 124.467 31.6918 124.659 31.2438 124.808C30.8171 124.936 30.3158 125 29.7398 125C28.9718 125 28.3318 124.904 27.8198 124.712C27.3291 124.52 27.0091 124.189 26.8598 123.72C26.2624 121.843 25.7718 120.328 25.3878 119.176C25.0038 118.003 24.7051 116.979 24.4918 116.104H24.3318C24.2678 117.363 24.2144 118.515 24.1718 119.56C24.1504 120.584 24.1291 121.587 24.1078 122.568C24.1078 123.549 24.0864 124.541 24.0438 125.544C24.0224 126.547 23.9798 127.656 23.9158 128.872C23.6384 128.979 23.2758 129.064 22.8278 129.128C22.3798 129.213 21.9318 129.256 21.4838 129.256C20.5451 129.256 19.8091 129.107 19.2758 128.808C18.7638 128.509 18.5078 127.965 18.5078 127.176L19.4358 110.856C19.6064 110.579 19.9798 110.28 20.5558 109.96C21.1318 109.64 21.9424 109.48 22.9878 109.48C24.1184 109.48 25.0038 109.661 25.6438 110.024C26.2838 110.365 26.7531 110.931 27.0518 111.72C27.2438 112.232 27.4464 112.819 27.6598 113.48C27.8944 114.141 28.1184 114.824 28.3318 115.528C28.5664 116.232 28.7904 116.936 29.0038 117.64C29.2171 118.323 29.4091 118.941 29.5798 119.496H29.7398C30.2518 117.704 30.7638 115.976 31.2758 114.312C31.7878 112.627 32.2571 111.219 32.6838 110.088C33.0038 109.917 33.4091 109.779 33.8998 109.672C34.4118 109.544 34.9771 109.48 35.5958 109.48C36.6411 109.48 37.4944 109.64 38.1558 109.96C38.8171 110.259 39.2011 110.696 39.3078 111.272C39.3931 111.699 39.4784 112.36 39.5638 113.256C39.6704 114.131 39.7771 115.123 39.8838 116.232C39.9904 117.341 40.0971 118.515 40.2038 119.752C40.3104 120.989 40.4064 122.184 40.4918 123.336C40.5984 124.467 40.6838 125.512 40.7478 126.472C40.8118 127.411 40.8544 128.136 40.8758 128.648C40.5131 128.861 40.1291 129.011 39.7238 129.096C39.3398 129.203 38.8384 129.256 38.2198 129.256C37.4091 129.256 36.7264 129.117 36.1718 128.84C35.6171 128.563 35.3184 128.019 35.2758 127.208C35.1478 124.883 35.0624 122.792 35.0198 120.936C34.9984 119.08 34.9558 117.523 34.8918 116.264H34.7318C34.5184 117.096 34.2091 118.141 33.8038 119.4C33.3984 120.659 32.9078 122.269 32.3318 124.232ZM50.0238 128.872C49.7891 128.936 49.4158 129 48.9038 129.064C48.4131 129.128 47.9224 129.16 47.4318 129.16C46.9411 129.16 46.5038 129.117 46.1198 129.032C45.7571 128.968 45.4478 128.84 45.1918 128.648C44.9358 128.456 44.7438 128.189 44.6158 127.848C44.4878 127.507 44.4238 127.059 44.4238 126.504V109.608C44.6584 109.565 45.0318 109.512 45.5438 109.448C46.0558 109.363 46.5464 109.32 47.0158 109.32C47.5064 109.32 47.9331 109.363 48.2958 109.448C48.6798 109.512 48.9998 109.64 49.2558 109.832C49.5118 110.024 49.7038 110.291 49.8318 110.632C49.9598 110.973 50.0238 111.421 50.0238 111.976V128.872ZM59.7418 122.728V128.872C59.5071 128.936 59.1338 129 58.6218 129.064C58.1311 129.128 57.6404 129.16 57.1498 129.16C56.6591 129.16 56.2218 129.117 55.8378 129.032C55.4751 128.968 55.1658 128.84 54.9098 128.648C54.6751 128.456 54.4938 128.189 54.3658 127.848C54.2378 127.507 54.1738 127.059 54.1738 126.504V111.432C54.1738 110.984 54.2911 110.643 54.5258 110.408C54.7818 110.152 55.1231 109.949 55.5498 109.8C56.2751 109.544 57.1178 109.363 58.0778 109.256C59.0378 109.128 60.0618 109.064 61.1498 109.064C64.0938 109.064 66.3124 109.683 67.8058 110.92C69.2991 112.157 70.0458 113.832 70.0458 115.944C70.0458 117.267 69.7044 118.397 69.0218 119.336C68.3391 120.275 67.5284 121 66.5898 121.512C67.3578 122.557 68.1151 123.539 68.8618 124.456C69.6084 125.373 70.1951 126.205 70.6218 126.952C70.4084 127.699 70.0138 128.275 69.4378 128.68C68.8831 129.064 68.2538 129.256 67.5498 129.256C67.0804 129.256 66.6751 129.203 66.3338 129.096C65.9924 128.989 65.6938 128.84 65.4378 128.648C65.1818 128.456 64.9471 128.221 64.7338 127.944C64.5204 127.667 64.3178 127.368 64.1258 127.048L61.4378 122.728H59.7418ZM61.7578 118.472C62.5684 118.472 63.2084 118.269 63.6778 117.864C64.1471 117.437 64.3818 116.819 64.3818 116.008C64.3818 115.197 64.1151 114.589 63.5818 114.184C63.0698 113.757 62.2484 113.544 61.1178 113.544C60.7978 113.544 60.5418 113.555 60.3498 113.576C60.1578 113.597 59.9444 113.629 59.7098 113.672V118.472H61.7578ZM79.2738 128.872C79.0391 128.936 78.6658 129 78.1538 129.064C77.6631 129.128 77.1724 129.16 76.6818 129.16C76.1911 129.16 75.7538 129.117 75.3698 129.032C75.0071 128.968 74.6978 128.84 74.4418 128.648C74.1858 128.456 73.9938 128.189 73.8658 127.848C73.7378 127.507 73.6738 127.059 73.6738 126.504V109.608C73.9084 109.565 74.2818 109.512 74.7938 109.448C75.3058 109.363 75.7964 109.32 76.2658 109.32C76.7564 109.32 77.1831 109.363 77.5458 109.448C77.9298 109.512 78.2498 109.64 78.5058 109.832C78.7618 110.024 78.9538 110.291 79.0818 110.632C79.2098 110.973 79.2738 111.421 79.2738 111.976V128.872ZM88.9278 121.288C87.9891 120.968 87.1358 120.648 86.3678 120.328C85.5998 119.987 84.9384 119.581 84.3838 119.112C83.8291 118.643 83.3918 118.088 83.0718 117.448C82.7731 116.787 82.6238 115.987 82.6238 115.048C82.6238 113.235 83.3171 111.784 84.7038 110.696C86.1118 109.608 88.0744 109.064 90.5918 109.064C91.5091 109.064 92.3624 109.128 93.1518 109.256C93.9411 109.384 94.6131 109.587 95.1678 109.864C95.7438 110.12 96.1918 110.461 96.5118 110.888C96.8318 111.293 96.9918 111.773 96.9918 112.328C96.9918 112.883 96.8638 113.363 96.6078 113.768C96.3518 114.152 96.0424 114.483 95.6798 114.76C95.2104 114.461 94.5811 114.205 93.7918 113.992C93.0024 113.757 92.1384 113.64 91.1998 113.64C90.2398 113.64 89.5358 113.779 89.0878 114.056C88.6398 114.312 88.4158 114.643 88.4158 115.048C88.4158 115.368 88.5544 115.635 88.8318 115.848C89.1091 116.04 89.5251 116.221 90.0798 116.392L91.7758 116.936C93.7811 117.576 95.3171 118.397 96.3838 119.4C97.4718 120.381 98.0158 121.725 98.0158 123.432C98.0158 125.245 97.3011 126.717 95.8718 127.848C94.4424 128.957 92.3411 129.512 89.5677 129.512C88.5864 129.512 87.6691 129.427 86.8158 129.256C85.9838 129.107 85.2478 128.883 84.6078 128.584C83.9891 128.264 83.4984 127.88 83.1358 127.432C82.7944 126.963 82.6238 126.429 82.6238 125.832C82.6238 125.213 82.8051 124.691 83.1678 124.264C83.5304 123.816 83.9251 123.475 84.3518 123.24C84.9491 123.709 85.6744 124.115 86.5278 124.456C87.4024 124.797 88.3518 124.968 89.3758 124.968C90.4211 124.968 91.1571 124.808 91.5838 124.488C92.0104 124.168 92.2238 123.795 92.2238 123.368C92.2238 122.941 92.0531 122.621 91.7118 122.408C91.3704 122.173 90.8904 121.949 90.2718 121.736L88.9278 121.288ZM105.302 110.184C105.664 109.971 106.208 109.768 106.934 109.576C107.68 109.384 108.427 109.288 109.174 109.288C110.24 109.288 111.179 109.448 111.99 109.768C112.822 110.067 113.355 110.547 113.59 111.208C113.974 112.317 114.39 113.608 114.838 115.08C115.286 116.552 115.734 118.077 116.182 119.656C116.63 121.213 117.067 122.76 117.494 124.296C117.92 125.811 118.294 127.155 118.614 128.328C118.358 128.627 117.974 128.861 117.462 129.032C116.95 129.224 116.342 129.32 115.638 129.32C115.126 129.32 114.688 129.277 114.326 129.192C113.984 129.107 113.696 128.979 113.462 128.808C113.248 128.637 113.067 128.413 112.918 128.136C112.79 127.859 112.672 127.539 112.566 127.176L111.99 124.968H106.198C106.027 125.608 105.856 126.269 105.686 126.952C105.515 127.635 105.344 128.296 105.174 128.936C104.875 129.043 104.555 129.128 104.214 129.192C103.894 129.277 103.499 129.32 103.03 129.32C101.942 129.32 101.131 129.139 100.598 128.776C100.086 128.392 99.8298 127.869 99.8298 127.208C99.8298 126.909 99.8724 126.611 99.9578 126.312C100.043 126.013 100.139 125.661 100.246 125.256C100.395 124.68 100.598 123.965 100.854 123.112C101.131 122.259 101.43 121.341 101.75 120.36C102.07 119.357 102.411 118.333 102.774 117.288C103.136 116.243 103.478 115.261 103.798 114.344C104.118 113.405 104.406 112.573 104.662 111.848C104.939 111.123 105.152 110.568 105.302 110.184ZM109.142 114.312C108.843 115.208 108.502 116.211 108.118 117.32C107.755 118.408 107.424 119.517 107.126 120.648H111.094C110.795 119.496 110.486 118.376 110.166 117.288C109.867 116.179 109.59 115.187 109.334 114.312H109.142Z" fill="black" fill-opacity="0.2"/>
<path d="M32.3318 124.232C32.0544 124.467 31.6918 124.659 31.2438 124.808C30.8171 124.936 30.3158 125 29.7398 125C28.9718 125 28.3318 124.904 27.8198 124.712C27.3291 124.52 27.0091 124.189 26.8598 123.72C26.2624 121.843 25.7718 120.328 25.3878 119.176C25.0038 118.003 24.7051 116.979 24.4918 116.104H24.3318C24.2678 117.363 24.2144 118.515 24.1718 119.56C24.1504 120.584 24.1291 121.587 24.1078 122.568C24.1078 123.549 24.0864 124.541 24.0438 125.544C24.0224 126.547 23.9798 127.656 23.9158 128.872C23.6384 128.979 23.2758 129.064 22.8278 129.128C22.3798 129.213 21.9318 129.256 21.4838 129.256C20.5451 129.256 19.8091 129.107 19.2758 128.808C18.7638 128.509 18.5078 127.965 18.5078 127.176L19.4358 110.856C19.6064 110.579 19.9798 110.28 20.5558 109.96C21.1318 109.64 21.9424 109.48 22.9878 109.48C24.1184 109.48 25.0038 109.661 25.6438 110.024C26.2838 110.365 26.7531 110.931 27.0518 111.72C27.2438 112.232 27.4464 112.819 27.6598 113.48C27.8944 114.141 28.1184 114.824 28.3318 115.528C28.5664 116.232 28.7904 116.936 29.0038 117.64C29.2171 118.323 29.4091 118.941 29.5798 119.496H29.7398C30.2518 117.704 30.7638 115.976 31.2758 114.312C31.7878 112.627 32.2571 111.219 32.6838 110.088C33.0038 109.917 33.4091 109.779 33.8998 109.672C34.4118 109.544 34.9771 109.48 35.5958 109.48C36.6411 109.48 37.4944 109.64 38.1558 109.96C38.8171 110.259 39.2011 110.696 39.3078 111.272C39.3931 111.699 39.4784 112.36 39.5638 113.256C39.6704 114.131 39.7771 115.123 39.8838 116.232C39.9904 117.341 40.0971 118.515 40.2038 119.752C40.3104 120.989 40.4064 122.184 40.4918 123.336C40.5984 124.467 40.6838 125.512 40.7478 126.472C40.8118 127.411 40.8544 128.136 40.8758 128.648C40.5131 128.861 40.1291 129.011 39.7238 129.096C39.3398 129.203 38.8384 129.256 38.2198 129.256C37.4091 129.256 36.7264 129.117 36.1718 128.84C35.6171 128.563 35.3184 128.019 35.2758 127.208C35.1478 124.883 35.0624 122.792 35.0198 120.936C34.9984 119.08 34.9558 117.523 34.8918 116.264H34.7318C34.5184 117.096 34.2091 118.141 33.8038 119.4C33.3984 120.659 32.9078 122.269 32.3318 124.232ZM50.0238 128.872C49.7891 128.936 49.4158 129 48.9038 129.064C48.4131 129.128 47.9224 129.16 47.4318 129.16C46.9411 129.16 46.5038 129.117 46.1198 129.032C45.7571 128.968 45.4478 128.84 45.1918 128.648C44.9358 128.456 44.7438 128.189 44.6158 127.848C44.4878 127.507 44.4238 127.059 44.4238 126.504V109.608C44.6584 109.565 45.0318 109.512 45.5438 109.448C46.0558 109.363 46.5464 109.32 47.0158 109.32C47.5064 109.32 47.9331 109.363 48.2958 109.448C48.6798 109.512 48.9998 109.64 49.2558 109.832C49.5118 110.024 49.7038 110.291 49.8318 110.632C49.9598 110.973 50.0238 111.421 50.0238 111.976V128.872ZM59.7418 122.728V128.872C59.5071 128.936 59.1338 129 58.6218 129.064C58.1311 129.128 57.6404 129.16 57.1498 129.16C56.6591 129.16 56.2218 129.117 55.8378 129.032C55.4751 128.968 55.1658 128.84 54.9098 128.648C54.6751 128.456 54.4938 128.189 54.3658 127.848C54.2378 127.507 54.1738 127.059 54.1738 126.504V111.432C54.1738 110.984 54.2911 110.643 54.5258 110.408C54.7818 110.152 55.1231 109.949 55.5498 109.8C56.2751 109.544 57.1178 109.363 58.0778 109.256C59.0378 109.128 60.0618 109.064 61.1498 109.064C64.0938 109.064 66.3124 109.683 67.8058 110.92C69.2991 112.157 70.0458 113.832 70.0458 115.944C70.0458 117.267 69.7044 118.397 69.0218 119.336C68.3391 120.275 67.5284 121 66.5898 121.512C67.3578 122.557 68.1151 123.539 68.8618 124.456C69.6084 125.373 70.1951 126.205 70.6218 126.952C70.4084 127.699 70.0138 128.275 69.4378 128.68C68.8831 129.064 68.2538 129.256 67.5498 129.256C67.0804 129.256 66.6751 129.203 66.3338 129.096C65.9924 128.989 65.6938 128.84 65.4378 128.648C65.1818 128.456 64.9471 128.221 64.7338 127.944C64.5204 127.667 64.3178 127.368 64.1258 127.048L61.4378 122.728H59.7418ZM61.7578 118.472C62.5684 118.472 63.2084 118.269 63.6778 117.864C64.1471 117.437 64.3818 116.819 64.3818 116.008C64.3818 115.197 64.1151 114.589 63.5818 114.184C63.0698 113.757 62.2484 113.544 61.1178 113.544C60.7978 113.544 60.5418 113.555 60.3498 113.576C60.1578 113.597 59.9444 113.629 59.7098 113.672V118.472H61.7578ZM79.2738 128.872C79.0391 128.936 78.6658 129 78.1538 129.064C77.6631 129.128 77.1724 129.16 76.6818 129.16C76.1911 129.16 75.7538 129.117 75.3698 129.032C75.0071 128.968 74.6978 128.84 74.4418 128.648C74.1858 128.456 73.9938 128.189 73.8658 127.848C73.7378 127.507 73.6738 127.059 73.6738 126.504V109.608C73.9084 109.565 74.2818 109.512 74.7938 109.448C75.3058 109.363 75.7964 109.32 76.2658 109.32C76.7564 109.32 77.1831 109.363 77.5458 109.448C77.9298 109.512 78.2498 109.64 78.5058 109.832C78.7618 110.024 78.9538 110.291 79.0818 110.632C79.2098 110.973 79.2738 111.421 79.2738 111.976V128.872ZM88.9278 121.288C87.9891 120.968 87.1358 120.648 86.3678 120.328C85.5998 119.987 84.9384 119.581 84.3838 119.112C83.8291 118.643 83.3918 118.088 83.0718 117.448C82.7731 116.787 82.6238 115.987 82.6238 115.048C82.6238 113.235 83.3171 111.784 84.7038 110.696C86.1118 109.608 88.0744 109.064 90.5918 109.064C91.5091 109.064 92.3624 109.128 93.1518 109.256C93.9411 109.384 94.6131 109.587 95.1678 109.864C95.7438 110.12 96.1918 110.461 96.5118 110.888C96.8318 111.293 96.9918 111.773 96.9918 112.328C96.9918 112.883 96.8638 113.363 96.6078 113.768C96.3518 114.152 96.0424 114.483 95.6798 114.76C95.2104 114.461 94.5811 114.205 93.7918 113.992C93.0024 113.757 92.1384 113.64 91.1998 113.64C90.2398 113.64 89.5358 113.779 89.0878 114.056C88.6398 114.312 88.4158 114.643 88.4158 115.048C88.4158 115.368 88.5544 115.635 88.8318 115.848C89.1091 116.04 89.5251 116.221 90.0798 116.392L91.7758 116.936C93.7811 117.576 95.3171 118.397 96.3838 119.4C97.4718 120.381 98.0158 121.725 98.0158 123.432C98.0158 125.245 97.3011 126.717 95.8718 127.848C94.4424 128.957 92.3411 129.512 89.5677 129.512C88.5864 129.512 87.6691 129.427 86.8158 129.256C85.9838 129.107 85.2478 128.883 84.6078 128.584C83.9891 128.264 83.4984 127.88 83.1358 127.432C82.7944 126.963 82.6238 126.429 82.6238 125.832C82.6238 125.213 82.8051 124.691 83.1678 124.264C83.5304 123.816 83.9251 123.475 84.3518 123.24C84.9491 123.709 85.6744 124.115 86.5278 124.456C87.4024 124.797 88.3518 124.968 89.3758 124.968C90.4211 124.968 91.1571 124.808 91.5838 124.488C92.0104 124.168 92.2238 123.795 92.2238 123.368C92.2238 122.941 92.0531 122.621 91.7118 122.408C91.3704 122.173 90.8904 121.949 90.2718 121.736L88.9278 121.288ZM105.302 110.184C105.664 109.971 106.208 109.768 106.934 109.576C107.68 109.384 108.427 109.288 109.174 109.288C110.24 109.288 111.179 109.448 111.99 109.768C112.822 110.067 113.355 110.547 113.59 111.208C113.974 112.317 114.39 113.608 114.838 115.08C115.286 116.552 115.734 118.077 116.182 119.656C116.63 121.213 117.067 122.76 117.494 124.296C117.92 125.811 118.294 127.155 118.614 128.328C118.358 128.627 117.974 128.861 117.462 129.032C116.95 129.224 116.342 129.32 115.638 129.32C115.126 129.32 114.688 129.277 114.326 129.192C113.984 129.107 113.696 128.979 113.462 128.808C113.248 128.637 113.067 128.413 112.918 128.136C112.79 127.859 112.672 127.539 112.566 127.176L111.99 124.968H106.198C106.027 125.608 105.856 126.269 105.686 126.952C105.515 127.635 105.344 128.296 105.174 128.936C104.875 129.043 104.555 129.128 104.214 129.192C103.894 129.277 103.499 129.32 103.03 129.32C101.942 129.32 101.131 129.139 100.598 128.776C100.086 128.392 99.8298 127.869 99.8298 127.208C99.8298 126.909 99.8724 126.611 99.9578 126.312C100.043 126.013 100.139 125.661 100.246 125.256C100.395 124.68 100.598 123.965 100.854 123.112C101.131 122.259 101.43 121.341 101.75 120.36C102.07 119.357 102.411 118.333 102.774 117.288C103.136 116.243 103.478 115.261 103.798 114.344C104.118 113.405 104.406 112.573 104.662 111.848C104.939 111.123 105.152 110.568 105.302 110.184ZM109.142 114.312C108.843 115.208 108.502 116.211 108.118 117.32C107.755 118.408 107.424 119.517 107.126 120.648H111.094C110.795 119.496 110.486 118.376 110.166 117.288C109.867 116.179 109.59 115.187 109.334 114.312H109.142Z" fill="#FF3951"/>
<path d="M56.7959 148.02V156.209H50.917V148.02H56.7959ZM52.4209 149.209V154.992H55.3193V149.209H52.4209ZM60.542 146.857V159.23H59.0107V146.857H60.542ZM72.6553 146.857V159.23H71.1514V146.857H72.6553ZM68.8545 147.938V152.572H64.6025V155.061C66.5508 155.047 68.2324 154.951 70.1533 154.623L70.29 155.867C68.1846 156.236 66.3389 156.305 64.124 156.305H63.0439V151.369H67.3096V149.168H63.0303V147.938H68.8545ZM78.876 149.824C78.8623 152.025 79.9697 154.268 81.8838 155.184L80.9541 156.4C79.6143 155.724 78.6504 154.418 78.124 152.846C77.584 154.527 76.5723 155.922 75.1572 156.633L74.2275 155.416C76.21 154.473 77.3447 152.107 77.3584 149.824V147.855H78.876V149.824ZM84.1396 146.857V151.697H86.04V152.996H84.1396V159.217H82.6221V146.857H84.1396Z" fill="#D9D9D9"/>
<path d="M56.7959 148.02V156.209H50.917V148.02H56.7959ZM52.4209 149.209V154.992H55.3193V149.209H52.4209ZM60.542 146.857V159.23H59.0107V146.857H60.542ZM72.6553 146.857V159.23H71.1514V146.857H72.6553ZM68.8545 147.938V152.572H64.6025V155.061C66.5508 155.047 68.2324 154.951 70.1533 154.623L70.29 155.867C68.1846 156.236 66.3389 156.305 64.124 156.305H63.0439V151.369H67.3096V149.168H63.0303V147.938H68.8545ZM78.876 149.824C78.8623 152.025 79.9697 154.268 81.8838 155.184L80.9541 156.4C79.6143 155.724 78.6504 154.418 78.124 152.846C77.584 154.527 76.5723 155.922 75.1572 156.633L74.2275 155.416C76.21 154.473 77.3447 152.107 77.3584 149.824V147.855H78.876V149.824ZM84.1396 146.857V151.697H86.04V152.996H84.1396V159.217H82.6221V146.857H84.1396Z" fill="black" fill-opacity="0.2"/>
<path d="M56.7959 148.02V156.209H50.917V148.02H56.7959ZM52.4209 149.209V154.992H55.3193V149.209H52.4209ZM60.542 146.857V159.23H59.0107V146.857H60.542ZM72.6553 146.857V159.23H71.1514V146.857H72.6553ZM68.8545 147.938V152.572H64.6025V155.061C66.5508 155.047 68.2324 154.951 70.1533 154.623L70.29 155.867C68.1846 156.236 66.3389 156.305 64.124 156.305H63.0439V151.369H67.3096V149.168H63.0303V147.938H68.8545ZM78.876 149.824C78.8623 152.025 79.9697 154.268 81.8838 155.184L80.9541 156.4C79.6143 155.724 78.6504 154.418 78.124 152.846C77.584 154.527 76.5723 155.922 75.1572 156.633L74.2275 155.416C76.21 154.473 77.3447 152.107 77.3584 149.824V147.855H78.876V149.824ZM84.1396 146.857V151.697H86.04V152.996H84.1396V159.217H82.6221V146.857H84.1396Z" fill="white"/>
</svg>
