<svg width="46" height="46" viewBox="0 0 46 46" fill="none" xmlns="http://www.w3.org/2000/svg">
<rect width="46" height="46" rx="12" fill="#2F323D"/>
<path d="M31.125 22.125H24.875V15.875C24.875 15.3777 24.6775 14.9008 24.3258 14.5492C23.9742 14.1975 23.4973 14 23 14C22.5027 14 22.0258 14.1975 21.6742 14.5492C21.3225 14.9008 21.125 15.3777 21.125 15.875V22.125H14.875C14.3777 22.125 13.9008 22.3225 13.5492 22.6742C13.1975 23.0258 13 23.5027 13 24C13 24.4973 13.1975 24.9742 13.5492 25.3258C13.9008 25.6775 14.3777 25.875 14.875 25.875H21.125V32.125C21.125 32.6223 21.3225 33.0992 21.6742 33.4508C22.0258 33.8025 22.5027 34 23 34C23.4973 34 23.9742 33.8025 24.3258 33.4508C24.6775 33.0992 24.875 32.6223 24.875 32.125V25.875H31.125C31.6223 25.875 32.0992 25.6775 32.4508 25.3258C32.8025 24.9742 33 24.4973 33 24C33 23.5027 32.8025 23.0258 32.4508 22.6742C32.0992 22.3225 31.6223 22.125 31.125 22.125Z" fill="white"/>
</svg>
